<svg width="13" height="12" viewBox="0 0 13 12" fill="none" xmlns="http://www.w3.org/2000/svg">
<path fill-rule="evenodd" clip-rule="evenodd" d="M1.51652 0C0.964536 0 0.517069 0.447106 0.517069 0.99864V5.79382C0.517069 6.34536 0.964537 6.79246 1.51652 6.79246H11.5112C12.0632 6.79246 12.5107 6.34536 12.5107 5.79382V0.99864C12.5107 0.447106 12.0632 0 11.5112 0H1.51652ZM2.01533 3.49529C2.01533 4.46046 2.79842 5.24288 3.7644 5.24288C4.73038 5.24288 5.51347 4.46046 5.51347 3.49529C5.51347 2.53013 4.73038 1.74771 3.7644 1.74771C2.79842 1.74771 2.01533 2.53013 2.01533 3.49529ZM9.26272 5.24288C8.29674 5.24288 7.51365 4.46046 7.51365 3.49529C7.51365 2.53013 8.29674 1.74771 9.26272 1.74771C10.2287 1.74771 11.0118 2.53013 11.0118 3.49529C11.0118 4.46046 10.2287 5.24288 9.26272 5.24288Z" fill="black"/>
<path d="M0.980544 10.3548C0.191513 10.775 0.453745 12 1.21097 12H11.8122C12.5695 12 12.8129 10.7807 12.0287 10.3572L7.79594 8.07158C7.01218 7.64836 6.06834 7.64562 5.28214 8.06427L0.980544 10.3548Z" fill="black"/>
</svg>
