<svg width="21" height="20" viewBox="0 0 21 20" fill="none" xmlns="http://www.w3.org/2000/svg">
<path d="M17.7706 4.65818C16.5321 3.61091 15.0459 3.08727 13.4771 3L13.2294 3.26182C14.633 3.61091 15.8716 4.30909 17.0275 5.26909C15.6239 4.48364 14.055 3.96 12.4037 3.78545C11.9083 3.69818 11.4954 3.69818 11 3.69818C10.5046 3.69818 10.0917 3.69818 9.59633 3.78545C7.94495 3.96 6.37615 4.48364 4.97248 5.26909C6.12844 4.30909 7.36697 3.61091 8.77064 3.26182L8.52294 3C6.95413 3.08727 5.46789 3.61091 4.22936 4.65818C2.82569 7.45091 2.08257 10.5927 2 13.8218C3.23853 15.2182 4.97248 16.0909 6.78899 16.0909C6.78899 16.0909 7.36697 15.3927 7.77982 14.7818C6.70642 14.52 5.7156 13.9091 5.05505 12.9491C5.63303 13.2982 6.21101 13.6473 6.78899 13.9091C7.53211 14.2582 8.27523 14.4327 9.01835 14.6073C9.6789 14.6945 10.3394 14.7818 11 14.7818C11.6606 14.7818 12.3211 14.6945 12.9817 14.6073C13.7248 14.4327 14.4679 14.2582 15.211 13.9091C15.789 13.6473 16.367 13.2982 16.945 12.9491C16.2844 13.9091 15.2936 14.52 14.2202 14.7818C14.633 15.3927 15.211 16.0909 15.211 16.0909C17.0275 16.0909 18.7615 15.2182 20 13.8218C19.9174 10.5927 19.1743 7.45091 17.7706 4.65818ZM8.27523 12.2509C7.44954 12.2509 6.70642 11.4655 6.70642 10.5055C6.70642 9.54545 7.44954 8.76 8.27523 8.76C9.10092 8.76 9.84404 9.54545 9.84404 10.5055C9.84404 11.4655 9.10092 12.2509 8.27523 12.2509ZM13.7248 12.2509C12.8991 12.2509 12.156 11.4655 12.156 10.5055C12.156 9.54545 12.8991 8.76 13.7248 8.76C14.5505 8.76 15.2936 9.54545 15.2936 10.5055C15.2936 11.4655 14.5505 12.2509 13.7248 12.2509Z" fill="#1D1D1E"/>
</svg>
