<svg width="19" height="18" viewBox="0 0 19 18" fill="none" xmlns="http://www.w3.org/2000/svg">
<path id="Vector" d="M9.5 0.25C4.66562 0.25 0.75 4.16562 0.75 9C0.75 12.8719 3.25469 16.1422 6.73281 17.3016C7.17031 17.3781 7.33437 17.1156 7.33437 16.8859C7.33437 16.6781 7.32344 15.9891 7.32344 15.2563C5.125 15.6609 4.55625 14.7203 4.38125 14.2281C4.28281 13.9766 3.85625 13.2 3.48438 12.9922C3.17812 12.8281 2.74063 12.4234 3.47344 12.4125C4.1625 12.4016 4.65469 13.0469 4.81875 13.3094C5.60625 14.6328 6.86406 14.2609 7.36719 14.0312C7.44375 13.4625 7.67344 13.0797 7.925 12.8609C5.97813 12.6422 3.94375 11.8875 3.94375 8.54062C3.94375 7.58906 4.28281 6.80156 4.84062 6.18906C4.75313 5.97031 4.44687 5.07344 4.92812 3.87031C4.92812 3.87031 5.66094 3.64063 7.33437 4.76719C8.03438 4.57031 8.77813 4.47187 9.52188 4.47187C10.2656 4.47187 11.0094 4.57031 11.7094 4.76719C13.3828 3.62969 14.1156 3.87031 14.1156 3.87031C14.5969 5.07344 14.2906 5.97031 14.2031 6.18906C14.7609 6.80156 15.1 7.57812 15.1 8.54062C15.1 11.8984 13.0547 12.6422 11.1078 12.8609C11.425 13.1344 11.6984 13.6594 11.6984 14.4797C11.6984 15.65 11.6875 16.5906 11.6875 16.8859C11.6875 17.1156 11.8516 17.3891 12.2891 17.3016C14.0261 16.7152 15.5355 15.5988 16.6048 14.1096C17.6741 12.6204 18.2495 10.8333 18.25 9C18.25 4.16562 14.3344 0.25 9.5 0.25Z" fill="white"/>
</svg>
