<svg width="73" height="16" viewBox="0 0 73 16" fill="none" xmlns="http://www.w3.org/2000/svg">
<path fill-rule="evenodd" clip-rule="evenodd" d="M1.18423 1C0.54025 1 0.0182047 1.52162 0.0182047 2.16508V7.75946C0.0182047 8.40292 0.540251 8.92454 1.18423 8.92454H12.8447C13.4887 8.92454 14.0108 8.40292 14.0108 7.75946V2.16508C14.0108 1.52162 13.4887 1 12.8447 1H1.18423ZM1.76618 5.07784C1.76618 6.20387 2.67978 7.11669 3.80676 7.11669C4.93374 7.11669 5.84734 6.20387 5.84734 5.07784C5.84734 3.95182 4.93374 3.03899 3.80676 3.03899C2.67978 3.03899 1.76618 3.95182 1.76618 5.07784ZM10.2215 7.11669C9.09448 7.11669 8.18088 6.20387 8.18088 5.07784C8.18088 3.95182 9.09448 3.03899 10.2215 3.03899C11.3484 3.03899 12.262 3.95182 12.262 5.07784C12.262 6.20387 11.3484 7.11669 10.2215 7.11669Z" fill="#1D1D1E"/>
<path d="M0.558926 13.0806C-0.361611 13.5708 -0.0556735 15 0.827755 15H13.1959C14.0793 15 14.3633 13.5774 13.4484 13.0834L8.51021 10.4168C7.59584 9.92309 6.49469 9.91988 5.57745 10.4083L0.558926 13.0806Z" fill="#1D1D1E"/>
<path d="M71.276 12.7471C71.6263 12.7471 71.996 12.7277 72.3852 12.6693V14.886C72.035 15.0027 71.4706 15.1194 70.8089 15.1194C68.6683 15.1194 67.4423 14.2638 67.4423 11.736V7.2248H65.8076V4.96921H67.4423V2.11084H70.0305V4.96921H72.3918V7.2248H70.0305V11.6776C70.0305 12.4554 70.556 12.7471 71.276 12.7471Z" fill="#1D1D1E"/>
<path d="M60.8017 15.1164C58.0383 15.1164 55.8198 12.8219 55.8198 9.98302C55.8198 7.14409 58.0383 4.84961 60.8017 4.84961H60.8212C63.5651 4.84961 65.7836 7.16353 65.7836 9.98302C65.7836 12.8025 63.5651 15.1164 60.8212 15.1164H60.8017ZM60.8017 12.5497H60.8212C62.1639 12.5497 63.1953 11.383 63.1953 9.98302C63.1953 8.583 62.1445 7.41631 60.8212 7.41631H60.8017C59.4395 7.43576 58.3886 8.583 58.3886 9.98302C58.3886 11.383 59.4395 12.5497 60.8017 12.5497Z" fill="#1D1D1E"/>
<path d="M45.1763 1H47.7645V6.3473C48.4067 5.47229 49.477 4.85006 50.6446 4.85006C52.9994 4.85006 55.0038 6.96953 55.0038 9.98346C55.0038 12.9974 52.9994 15.1169 50.6446 15.1169C49.477 15.1169 48.4262 14.6891 47.7645 13.6391V15.0002H45.1763V1ZM50.0608 12.5502C51.3841 12.5502 52.4155 11.4029 52.4155 9.98346C52.4155 8.564 51.3841 7.41676 50.0608 7.41676C48.757 7.41676 47.7645 8.564 47.7645 9.98346C47.7645 11.4029 48.757 12.5502 50.0608 12.5502Z" fill="#1D1D1E"/>
<path d="M43.1996 1V15.0002H40.6113V1H43.1996Z" fill="#1D1D1E"/>
<path d="M38.639 1V15.0002H36.0508V1H38.639Z" fill="#1D1D1E"/>
<path d="M32.8091 3.86033C31.8361 3.86033 31.0771 3.08254 31.0771 2.11031C31.0771 1.15752 31.8361 0.39917 32.8091 0.39917C33.7821 0.39917 34.58 1.15752 34.58 2.11031C34.58 3.08254 33.7432 3.86033 32.8091 3.86033ZM34.0935 15.0022H31.5053V4.96868H34.0935V15.0022Z" fill="#1D1D1E"/>
<path d="M26.9331 0.999756H29.5213V15H26.9331V9.28321H20.3944V15H17.8062V0.999756H20.3944V6.71651H26.9331V0.999756Z" fill="#1D1D1E"/>
</svg>
