<svg width="63" height="14" viewBox="0 0 63 14" fill="none" xmlns="http://www.w3.org/2000/svg">
<path fill-rule="evenodd" clip-rule="evenodd" d="M1.01505 1C0.463071 1 0.015604 1.44711 0.015604 1.99864V6.79382C0.015604 7.34536 0.463072 7.79246 1.01505 7.79246H11.0098C11.5618 7.79246 12.0092 7.34536 12.0092 6.79382V1.99864C12.0092 1.44711 11.5617 1 11.0098 1H1.01505ZM1.51387 4.49529C1.51387 5.46046 2.29695 6.24287 3.26294 6.24287C4.22892 6.24287 5.012 5.46046 5.012 4.49529C5.012 3.53013 4.22892 2.74771 3.26294 2.74771C2.29695 2.74771 1.51387 3.53013 1.51387 4.49529ZM8.76126 6.24287C7.79527 6.24287 7.01219 5.46046 7.01219 4.49529C7.01219 3.53013 7.79527 2.74771 8.76126 2.74771C9.72724 2.74771 10.5103 3.53013 10.5103 4.49529C10.5103 5.46046 9.72724 6.24287 8.76126 6.24287Z" fill="white"/>
<path d="M0.47908 11.3548C-0.309952 11.775 -0.0477201 13 0.709504 13H11.3108C12.068 13 12.3114 11.7807 11.5272 11.3572L7.29447 9.07158C6.51072 8.64836 5.56688 8.64562 4.78067 9.06426L0.47908 11.3548Z" fill="white"/>
<path d="M61.0934 11.0689C61.3937 11.0689 61.7106 11.0523 62.0442 11.0023V12.9023C61.744 13.0023 61.2602 13.1023 60.6931 13.1023C58.8583 13.1023 57.8074 12.369 57.8074 10.2023V6.33555H56.4062V4.40218H57.8074V1.95215H60.0259V4.40218H62.0498V6.33555H60.0259V10.1523C60.0259 10.8189 60.4763 11.0689 61.0934 11.0689Z" fill="white"/>
<path d="M52.1159 13.0997C49.7473 13.0997 47.8457 11.133 47.8457 8.69962C47.8457 6.26626 49.7473 4.29956 52.1159 4.29956H52.1326C54.4845 4.29956 56.386 6.28292 56.386 8.69962C56.386 11.1163 54.4845 13.0997 52.1326 13.0997H52.1159ZM52.1159 10.8997H52.1326C53.2835 10.8997 54.1676 9.89964 54.1676 8.69962C54.1676 7.49961 53.2668 6.49959 52.1326 6.49959H52.1159C50.9483 6.51626 50.0475 7.49961 50.0475 8.69962C50.0475 9.89964 50.9483 10.8997 52.1159 10.8997Z" fill="white"/>
<path d="M38.7227 1H40.9411V5.5834C41.4916 4.83339 42.409 4.30005 43.4098 4.30005C45.4282 4.30005 47.1462 6.11674 47.1462 8.70011C47.1462 11.2835 45.4282 13.1002 43.4098 13.1002C42.409 13.1002 41.5083 12.7335 40.9411 11.8335V13.0002H38.7227V1ZM42.9094 10.9001C44.0437 10.9001 44.9278 9.9168 44.9278 8.70011C44.9278 7.48343 44.0437 6.50008 42.9094 6.50008C41.7918 6.50008 40.9411 7.48343 40.9411 8.70011C40.9411 9.9168 41.7918 10.9001 42.9094 10.9001Z" fill="white"/>
<path d="M37.0281 1V13.0002H34.8096V1H37.0281Z" fill="white"/>
<path d="M33.1189 1V13.0002H30.9004V1H33.1189Z" fill="white"/>
<path d="M28.1222 3.45182C27.2882 3.45182 26.6377 2.78514 26.6377 1.9518C26.6377 1.13512 27.2882 0.485107 28.1222 0.485107C28.9563 0.485107 29.6402 1.13512 29.6402 1.9518C29.6402 2.78514 28.9229 3.45182 28.1222 3.45182ZM29.2232 13.002H27.0047V4.40183H29.2232V13.002Z" fill="white"/>
<path d="M23.0853 0.999756H25.3038V12.9999H23.0853V8.09986H17.4807V12.9999H15.2622V0.999756H17.4807V5.89983H23.0853V0.999756Z" fill="white"/>
</svg>
