<svg width="100" height="34" viewBox="0 0 100 34" fill="none" xmlns="http://www.w3.org/2000/svg">
<path fill-rule="evenodd" clip-rule="evenodd" d="M38.1149 20.0732L38.2324 21.1215L45.4618 19.4858L46.6275 32.5801H43.8126L44.2825 21.4468L38.2324 22.102L38.8198 32.5801H35.8828L36.6464 20.0732H38.1149Z" fill="#1D1D1E" stroke="#1D1D1E" stroke-miterlimit="3" stroke-linecap="square"/>
<path fill-rule="evenodd" clip-rule="evenodd" d="M75.6562 9.65723L75.4529 24.3917L80.4593 19.0916L82.0136 21.1791L77.685 24.6538L82.8947 32.5519H79.5104L76.6728 25.3496L75.4529 26.434L75.2496 32.6468L71.436 32.6604L74.4046 9.63916L75.6562 9.65723Z" fill="#1D1D1E" stroke="#1D1D1E" stroke-miterlimit="3" stroke-linecap="square"/>
<path fill-rule="evenodd" clip-rule="evenodd" d="M31.27 21.7642H25.1159L23.4893 25.519L25.378 29.5087L30.2262 28.6819L31.2925 29.5268L24.8087 32.5677L20.3354 26.0341L24.289 19.4824H31.2519L31.27 21.7642Z" fill="#1D1D1E" stroke="#1D1D1E" stroke-width="0.333333" stroke-miterlimit="3" stroke-linecap="square"/>
<path fill-rule="evenodd" clip-rule="evenodd" d="M34.2862 32.5666L31.4893 19.4858H30.2241V32.5801L34.2862 32.5666Z" fill="#1D1D1E" stroke="#1D1D1E" stroke-width="0.333333" stroke-miterlimit="3" stroke-linecap="square"/>
<path fill-rule="evenodd" clip-rule="evenodd" d="M48.7505 13.8943H50.5533V16.5556H49.3063L48.7505 13.8943Z" fill="#1D1D1E" stroke="#1D1D1E" stroke-miterlimit="3" stroke-linecap="square"/>
<path fill-rule="evenodd" clip-rule="evenodd" d="M51.6099 13.8943H49.807V16.5556H51.0541L51.6099 13.8943Z" fill="#1D1D1E" stroke="#1D1D1E" stroke-miterlimit="3" stroke-linecap="square"/>
<path fill-rule="evenodd" clip-rule="evenodd" d="M49.3345 19.4578H50.5409V32.6469H48.2637L49.3345 19.4578Z" fill="#1D1D1E" stroke="#1D1D1E" stroke-miterlimit="3" stroke-linecap="square"/>
<path fill-rule="evenodd" clip-rule="evenodd" d="M51.0258 19.4578H49.8194V32.6469H52.0967L51.0258 19.4578Z" fill="#1D1D1E" stroke="#1D1D1E" stroke-miterlimit="3" stroke-linecap="square"/>
<path fill-rule="evenodd" clip-rule="evenodd" d="M84.9365 13.8276H86.7394V16.489H85.4923L84.9365 13.8276Z" fill="#1D1D1E" stroke="#1D1D1E" stroke-miterlimit="3" stroke-linecap="square"/>
<path fill-rule="evenodd" clip-rule="evenodd" d="M87.7959 13.8276H85.9931V16.489H87.2401L87.7959 13.8276Z" fill="#1D1D1E" stroke="#1D1D1E" stroke-miterlimit="3" stroke-linecap="square"/>
<path fill-rule="evenodd" clip-rule="evenodd" d="M85.5206 19.3911H86.727V32.5803H84.4497L85.5206 19.3911Z" fill="#1D1D1E" stroke="#1D1D1E" stroke-miterlimit="3" stroke-linecap="square"/>
<path fill-rule="evenodd" clip-rule="evenodd" d="M87.2119 19.3911H86.0054V32.5803H88.2827L87.2119 19.3911Z" fill="#1D1D1E" stroke="#1D1D1E" stroke-miterlimit="3" stroke-linecap="square"/>
<path fill-rule="evenodd" clip-rule="evenodd" d="M96.5995 9.78491H97.7517V32.5802H95.3569L96.5995 9.78491Z" fill="#1D1D1E" stroke="#1D1D1E" stroke-miterlimit="3" stroke-linecap="square"/>
<path fill-rule="evenodd" clip-rule="evenodd" d="M98.0778 9.78491H96.9256V32.5802H99.3203L98.0778 9.78491Z" fill="#1D1D1E" stroke="#1D1D1E" stroke-miterlimit="3" stroke-linecap="square"/>
<path fill-rule="evenodd" clip-rule="evenodd" d="M91.0809 9.78491H92.2331V32.5802H89.8384L91.0809 9.78491Z" fill="#1D1D1E" stroke="#1D1D1E" stroke-miterlimit="3" stroke-linecap="square"/>
<path fill-rule="evenodd" clip-rule="evenodd" d="M92.5592 9.78491H91.407V32.5802H93.8018L92.5592 9.78491Z" fill="#1D1D1E" stroke="#1D1D1E" stroke-miterlimit="3" stroke-linecap="square"/>
<path fill-rule="evenodd" clip-rule="evenodd" d="M9.19634 9.78491L11.0127 21.1261V26.9277H10.1362L6.6299 15.207L5.63586 32.5802H1.33887L4.47915 9.78491H9.19634Z" fill="#1D1D1E" stroke="#1D1D1E" stroke-miterlimit="3" stroke-linecap="square"/>
<path fill-rule="evenodd" clip-rule="evenodd" d="M12.6601 9.78491L10.8437 21.1261V26.9277H11.7203L15.2265 15.207L16.2206 32.5802H20.5176L17.3773 9.78491H12.6601Z" fill="#1D1D1E" stroke="#1D1D1E" stroke-miterlimit="3" stroke-linecap="square"/>
<path fill-rule="evenodd" clip-rule="evenodd" d="M64.425 26.0954L59.7168 30.5866L67.4117 32.4979L68.6633 29.823L70.2221 26.4568L70.0188 26.2309L61.4835 15.0795L66.1872 11.135L71.7764 11.4603L73.76 6.13764L72.287 5.31981L70.6694 9.30503L66.4538 9.01134L67.0683 4.1134L70.5971 3.21424L70.1588 1.33911L65.157 2.48226L64.2759 9.01134L56.8115 15.0343L64.425 26.0954Z" fill="#1D1D1E" stroke="#1D1D1E" stroke-miterlimit="3" stroke-linecap="square"/>
<path d="M67.4118 30.2336H53.7339V32.6479H67.4118V30.2336Z" fill="#1D1D1E" stroke="#1D1D1E" stroke-width="0.333333" stroke-miterlimit="3" stroke-linecap="square"/>
</svg>
