<svg width="12" height="12" viewBox="0 0 12 12" fill="none" xmlns="http://www.w3.org/2000/svg">
<path fill-rule="evenodd" clip-rule="evenodd" d="M1.01505 0C0.463071 0 0.015604 0.447106 0.015604 0.99864V5.79382C0.015604 6.34536 0.463072 6.79246 1.01505 6.79246H11.0098C11.5618 6.79246 12.0092 6.34536 12.0092 5.79382V0.99864C12.0092 0.447106 11.5617 0 11.0098 0H1.01505ZM1.51387 3.49529C1.51387 4.46046 2.29695 5.24288 3.26294 5.24288C4.22892 5.24288 5.012 4.46046 5.012 3.49529C5.012 2.53013 4.22892 1.74771 3.26294 1.74771C2.29695 1.74771 1.51387 2.53013 1.51387 3.49529ZM8.76126 5.24288C7.79527 5.24288 7.01219 4.46046 7.01219 3.49529C7.01219 2.53013 7.79527 1.74771 8.76126 1.74771C9.72724 1.74771 10.5103 2.53013 10.5103 3.49529C10.5103 4.46046 9.72724 5.24288 8.76126 5.24288Z" fill="#1D1D1E"/>
<path d="M0.47908 10.3548C-0.309952 10.775 -0.0477201 12 0.709504 12H11.3108C12.068 12 12.3114 10.7807 11.5272 10.3572L7.29447 8.07158C6.51072 7.64836 5.56688 7.64562 4.78067 8.06427L0.47908 10.3548Z" fill="#1D1D1E"/>
</svg>
